<svg width="123" height="124" viewBox="0 0 123 124" fill="none" xmlns="http://www.w3.org/2000/svg">
<path d="M20.9701 123.098C14.8213 119.363 6.65207 114.154 1.29147 109.481M1.29147 109.481C0.673649 108.943 5.90287 105.707 6.15653 105.578C11.7182 102.747 17.4796 100.731 23.3956 98.8025M1.29147 109.481C38.3451 121.951 75.5722 108.663 88.0102 83.7198C89.2429 81.2476 90.5821 78.5556 91.6759 75.756M91.6759 75.756C93.4178 71.2976 94.5373 66.5664 93.6139 62.0161C92.7614 57.8167 89.882 52.7051 85.6174 51.322C77.6509 48.7385 70.8666 57.5337 73.5148 65.1587C75.8417 71.8594 84.8162 77.2352 91.6759 75.756ZM91.6759 75.756C91.8206 75.7248 91.9643 75.6905 92.107 75.6532C126.557 66.6364 128.863 24.8309 111.545 1.39487" stroke="white" stroke-miterlimit="1.5" stroke-linecap="round" stroke-linejoin="round"/>
</svg>
