<svg width="60" height="60" viewBox="0 0 60 60" fill="none" xmlns="http://www.w3.org/2000/svg">
<rect width="59.2969" height="59.2969" rx="29.6484" fill="white" fill-opacity="0.29"/>
<path d="M38.7742 35.0243V38.6645C38.7743 38.9251 38.6756 39.1761 38.4979 39.3668C38.3202 39.5575 38.0768 39.6737 37.8168 39.6919C37.367 39.7228 36.9995 39.7393 36.7154 39.7393C27.6185 39.7393 20.2449 32.3652 20.2449 23.2679C20.2449 22.9838 20.2604 22.6163 20.2923 22.1664C20.3105 21.9064 20.4267 21.663 20.6174 21.4853C20.808 21.3076 21.059 21.2089 21.3196 21.209H24.9596C25.0873 21.2089 25.2105 21.2562 25.3052 21.3418C25.3999 21.4274 25.4595 21.5452 25.4722 21.6722C25.4959 21.909 25.5175 22.0974 25.5381 22.2405C25.7427 23.6683 26.1619 25.0569 26.7816 26.3594C26.8794 26.5653 26.8156 26.8113 26.6303 26.9431L24.4089 28.5305C25.7671 31.6955 28.2893 34.2178 31.4541 35.5761L33.0394 33.3587C33.1042 33.2681 33.1987 33.2031 33.3065 33.1751C33.4143 33.147 33.5285 33.1577 33.6292 33.2053C34.9314 33.8238 36.3197 34.2421 37.7468 34.4458C37.8899 34.4664 38.0783 34.489 38.313 34.5117C38.4399 34.5247 38.5574 34.5843 38.6428 34.679C38.7282 34.7738 38.7754 34.8968 38.7752 35.0243H38.7742Z" fill="white"/>
</svg>
