<svg width="61" height="60" viewBox="0 0 61 60" fill="none" xmlns="http://www.w3.org/2000/svg">
<rect x="0.851562" width="59.2969" height="59.2969" rx="29.6484" fill="white" fill-opacity="0.29"/>
<path fill-rule="evenodd" clip-rule="evenodd" d="M21.4222 23.2266C21.4767 23.276 22.4969 24.1007 23.6892 25.0591C24.8815 26.0176 26.9146 27.6543 28.2072 28.6963C29.4998 29.7383 30.5915 30.5908 30.6331 30.5908C30.6747 30.5908 31.7663 29.7383 33.0589 28.6963C34.3515 27.6543 36.3846 26.0176 37.5769 25.0591C38.7692 24.1007 39.7894 23.276 39.844 23.2266C39.9277 23.1507 38.4954 23.1367 30.6331 23.1367C22.7707 23.1367 21.3384 23.1507 21.4222 23.2266ZM20.1326 29.8707C20.1326 33.2741 20.1572 35.4746 20.1951 35.4612C20.2537 35.4406 21.0574 34.7969 25.4342 31.2642L27.1791 29.8558L26.3826 29.2124C24.7894 27.9255 20.836 24.744 20.5321 24.5042C20.3605 24.3689 20.2005 24.2581 20.1764 24.2581C20.1523 24.2581 20.1326 26.7837 20.1326 29.8707ZM40.7609 24.4787C39.2011 25.7335 35.509 28.7072 34.8827 29.2131L34.0853 29.8571L37.5475 32.6482C39.4516 34.1833 41.0375 35.4492 41.0716 35.4612C41.1088 35.4744 41.1335 33.2349 41.1335 29.8707C41.1335 26.7837 41.1107 24.2587 41.0827 24.2594C41.0548 24.2601 40.91 24.3588 40.7609 24.4787ZM25.3757 33.3014C23.7029 34.6488 22.0842 35.9482 21.7786 36.189C21.473 36.4297 21.2215 36.6489 21.2197 36.6761C21.2179 36.7033 25.4539 36.7256 30.6331 36.7256C35.8122 36.7256 40.0482 36.7033 40.0464 36.6761C40.0446 36.6489 39.7931 36.4297 39.4875 36.189C39.1819 35.9482 37.5632 34.6488 35.8904 33.3014C33.2136 31.1452 32.8359 30.8624 32.7403 30.9418C31.7924 31.7284 30.9935 32.3279 30.8335 32.3727C30.7233 32.4034 30.5428 32.4034 30.4326 32.3727C30.2726 32.3279 29.4737 31.7284 28.5258 30.9418C28.4302 30.8624 28.0525 31.1452 25.3757 33.3014Z" fill="white"/>
</svg>
