<svg width="34" height="34" viewBox="0 0 34 34" fill="none" xmlns="http://www.w3.org/2000/svg">
<circle cx="16.8459" cy="16.7922" r="16.7101" fill="#46CFCF"/>
<path fill-rule="evenodd" clip-rule="evenodd" d="M19.1208 13.5869C18.7745 13.2406 18.7745 12.6792 19.1208 12.3329C19.4671 11.9867 20.0285 11.9867 20.3748 12.3329L24.126 16.0842C24.2865 16.2447 24.3726 16.4514 24.3843 16.6616C24.447 16.9471 24.3674 17.2576 24.1453 17.4796L20.3748 21.2501C20.0285 21.5964 19.4671 21.5964 19.1208 21.2501C18.7745 20.9039 18.7745 20.3425 19.1208 19.9962L21.3506 17.7664H10.1727C9.68298 17.7664 9.286 17.3694 9.286 16.8797C9.286 16.39 9.68298 15.993 10.1727 15.993H21.527L19.1208 13.5869Z" fill="#121212"/>
</svg>
