<svg width="60" height="60" viewBox="0 0 60 60" fill="none" xmlns="http://www.w3.org/2000/svg">
<rect x="0.703125" width="59.2969" height="59.2969" rx="29.6484" fill="white" fill-opacity="0.29"/>
<path d="M31.7603 40.7802C30.1268 41.0353 28.4561 40.9012 26.8843 40.3886C25.3124 39.876 23.8838 38.9995 22.7148 37.8305C21.5457 36.6614 20.6692 35.2328 20.1566 33.6609C19.644 32.0891 19.5099 30.4184 19.765 28.7849C19.1211 27.5601 18.8858 26.1614 19.0935 24.7933C19.3012 23.4251 19.9411 22.1593 20.9196 21.1808C21.8981 20.2024 23.1639 19.5625 24.532 19.3547C25.9002 19.147 27.2988 19.3823 28.5237 20.0263C30.1572 19.7711 31.8279 19.9053 33.3997 20.4179C34.9716 20.9304 36.4002 21.8069 37.5692 22.976C38.7383 24.1451 39.6148 25.5737 40.1274 27.1455C40.6399 28.7174 40.7741 30.388 40.5189 32.0215C41.1629 33.2464 41.3982 34.6451 41.1905 36.0132C40.9827 37.3813 40.3429 38.6471 39.3644 39.6256C38.3859 40.6041 37.1201 41.244 35.752 41.4517C34.3838 41.6594 32.9851 41.4241 31.7603 40.7802ZM30.2062 36.7727H30.1568C33.7048 36.7727 35.4725 35.0605 35.4725 32.7665C35.4725 31.2865 34.7919 29.7139 32.105 29.1123L29.6553 28.5687C28.7226 28.3563 27.6515 28.0746 27.6515 27.1913C27.6515 26.308 28.4174 25.6928 29.7813 25.6928C32.5361 25.6928 32.2853 27.5804 33.6492 27.5804C34.3607 27.5804 34.9994 27.158 34.9994 26.4316C34.9994 24.7391 32.2853 23.4667 29.9888 23.4667C27.4922 23.4667 24.8337 24.5279 24.8337 27.3507C24.8337 28.7071 25.3204 30.1549 27.9962 30.8257L31.3181 31.6546C32.3261 31.9042 32.5756 32.4687 32.5756 32.9789C32.5756 33.8276 31.7307 34.6565 30.2062 34.6565C27.2204 34.6565 27.6392 32.3625 26.0382 32.3625C25.3217 32.3625 24.7991 32.8542 24.7991 33.562C24.7991 34.9382 26.4693 36.7715 30.2062 36.7715V36.7727Z" fill="white"/>
</svg>
